<svg width="1080" height="1080" viewBox="0 0 1080 1080" fill="none" xmlns="http://www.w3.org/2000/svg">
<rect width="1080" height="1080" rx="280" fill="#171717"/>
<path fill-rule="evenodd" clip-rule="evenodd" d="M493.439 419.576C499.856 418.094 506.154 415.482 511.852 411.876C517.841 408.089 523.174 403.217 527.352 397.478C530.838 392.607 533.577 387.148 535.052 381.156C535.98 377.369 536.471 373.374 536.298 369.235C536.143 365.457 535.515 361.571 534.278 357.603C532.685 352.506 530.146 347.39 526.605 342.121C528.535 346.812 529.746 351.277 530.537 355.597C531.411 360.378 531.593 364.87 531.283 369.163C531.01 372.823 530.355 376.293 529.336 379.592C527.734 384.744 525.259 389.444 522.046 393.583C518.259 398.563 513.463 402.729 508.138 405.974C504.07 408.45 499.683 410.384 495.178 411.695L490.418 412.825C481.899 414.831 473.043 414.406 465.589 410.891L465.243 410.728C465.152 410.637 465.061 410.547 464.961 410.457C461.966 408.459 459.355 406.109 457.015 403.335C454.604 400.47 452.501 397.496 450.926 393.8C451.063 398.057 451.81 401.871 453.293 405.54C454.54 408.595 456.324 411.288 458.372 413.81L419.526 442.315C416.468 437.046 415.021 432.907 414.357 429.599C412.946 422.604 415.194 419.666 415.194 419.666C415.194 419.666 411.417 421.926 410.753 429.807C410.407 433.856 411.208 439.206 413.592 446.482C413.638 446.581 413.684 446.68 413.738 446.771L413.966 448.669C414.421 452.401 415.877 456.044 415.749 459.794C415.486 468.136 405.828 473.794 397.227 470.829L395.644 470.287L394.188 471.128C385.732 476.053 378.988 476.56 373.919 475.204C369.65 474.074 366.638 471.679 364.89 469.917C370.142 464.521 383.011 451.235 387.343 446.192L389.537 443.653L388.973 443.101C383.703 437.868 377.141 437.841 370.469 440.779C360.185 445.325 349.663 457.553 345.932 462.171C344.858 461.828 341.536 459.297 340.08 457.842C337.859 455.628 335.875 451.886 335.019 445.74L334.81 444.249L333.599 443.345C322.414 434.976 320.293 419.964 331.024 411.044L332.379 409.914L332.325 408.152C332.17 403.633 334.236 399.087 337.031 394.776C341.727 387.5 348.589 380.93 352.831 376.303C370.788 356.681 392.012 331.963 405.683 302.897C408.195 297.555 409.232 293.895 410.015 291.021C410.643 288.735 410.999 287.036 412.182 285.264C414.894 281.224 421.256 276.886 439.905 265.299L440.933 264.658L441.37 263.528C442.981 259.353 447.768 251.842 458.244 248.091L460.611 247.242L460.656 244.747C460.82 234.914 465.57 202.884 498.945 180C508.921 194.723 507.783 218.348 506.318 227.404L505.189 234.372L511.543 231.209C527.679 223.174 545.628 223.301 563.157 222.397C579.485 221.556 595.458 219.857 609.592 211.217C609.219 213.693 608.51 216.612 607.19 219.559L604.668 225.18L610.848 224.629C629.452 222.957 647.172 227.946 664.729 233.477C680.939 238.584 697.022 244.16 713.441 245.976C709.873 250.342 703.401 256.686 693.526 260.753L688.93 262.651L692.143 266.429C695.492 270.37 723.124 300.62 755.899 307.841C751.412 313.634 743.821 319.454 733.164 320.9L730.051 321.325L730.023 324.443C729.969 328.953 730.696 345.492 737.213 361.083C741.108 370.428 747.07 379.393 755.999 385.449C750.247 389.679 740.854 391.432 731.316 389.932L727.748 389.371L727.156 392.896C723.525 414.216 727.129 441.538 740.982 460.517C734.283 463.437 724.171 463.879 716.553 459.18L714.414 457.86L712.421 459.379C705.768 464.431 683.606 490.686 695.201 525.03C676.307 528.943 661.99 521.27 649.812 513.814L646.726 511.925L644.815 514.98C636.797 527.777 630.507 541.741 626.248 556.563L624.929 561.163H733.827L456.597 891V631.658H348.216L493.439 419.576ZM426.698 294.474C426.434 295.513 426.298 296.597 426.298 297.709C426.298 302.725 429.092 307.19 433.451 310.082C440.687 308.41 446.175 303.186 447.094 296.796C448.114 296.634 449.097 296.399 450.016 296.083C452.137 295.359 453.866 294.456 455.35 293.479C458.271 291.545 459.755 289.828 459.755 289.828C459.755 289.828 456.287 290.904 451.254 291.021C449.752 291.057 448.224 290.84 446.503 290.714C444.456 290.551 442.235 290.362 439.978 289.521C437.957 288.906 436.1 288.454 434.371 288.454C432.178 288.445 430.284 288.825 428.646 289.494C427.063 290.154 425.797 290.895 424.723 291.799C421.801 294.293 420.81 296.814 420.81 296.814C420.81 296.814 422.966 295.197 426.698 294.474ZM512.634 256.343C527.433 255.53 541.486 256.216 554.765 258.078C569.245 260.112 582.706 263.682 595.112 268.544C603.003 271.635 610.466 275.223 617.447 279.335C634.439 289.349 648.547 302.49 659.077 318.352C669.325 333.788 676.161 351.747 679.128 371.711C680.302 379.637 680.875 387.862 680.857 396.394C680.839 402.847 680.511 409.472 679.792 416.259C678.773 425.821 677.043 435.672 674.513 445.822C671.91 456.215 668.534 466.88 664.22 477.816C670.809 464.376 675.96 451.262 679.637 438.465C683.797 423.968 686.154 409.932 686.746 396.52C687.146 387.663 686.719 379.077 685.645 370.817C682.887 349.749 675.715 330.779 664.957 314.511C653.88 297.754 638.963 283.8 620.878 273.506C613.506 269.312 605.615 265.715 597.232 262.85C584.254 258.413 570.137 255.629 555.138 254.608C541.632 253.695 527.442 254.291 512.634 256.343ZM338.041 412.228C341.19 412.725 344.057 415.708 344.475 418.329C342.983 417.1 341.863 416.367 339.879 416.666C335.993 417.244 333.353 421.058 333.972 425.188C334.063 425.758 334.209 426.309 334.4 426.824C335.401 429.481 337.74 431.352 340.398 431.65C340.971 431.705 341.554 431.696 342.136 431.614C342.346 431.578 342.555 431.542 342.755 431.488C342.983 431.479 343.22 431.452 343.456 431.415C348.417 430.674 351.766 425.613 350.937 420.109C350.1 414.614 345.404 410.746 340.434 411.487C339.588 411.613 338.787 411.867 338.041 412.228Z" fill="white"/>
<path fill-rule="evenodd" clip-rule="evenodd" d="M493.439 419.576C499.856 418.094 506.154 415.482 511.852 411.876C517.841 408.089 523.174 403.217 527.352 397.478C530.838 392.607 533.577 387.148 535.052 381.156C535.98 377.369 536.471 373.374 536.298 369.235C536.143 365.457 535.515 361.571 534.278 357.603C532.685 352.506 530.146 347.39 526.605 342.121C528.535 346.812 529.746 351.277 530.537 355.597C531.411 360.378 531.593 364.87 531.283 369.163C531.01 372.823 530.355 376.293 529.336 379.592C527.734 384.744 525.259 389.444 522.046 393.583C518.259 398.563 513.463 402.729 508.138 405.974C504.07 408.45 499.683 410.384 495.178 411.695L490.418 412.825C481.899 414.831 473.043 414.406 465.589 410.891L465.243 410.728C465.152 410.637 465.061 410.547 464.961 410.457C461.966 408.459 459.355 406.109 457.015 403.335C454.604 400.47 452.501 397.496 450.926 393.8C451.063 398.057 451.81 401.871 453.293 405.54C454.54 408.595 456.324 411.288 458.372 413.81L419.526 442.315C416.468 437.046 415.021 432.907 414.357 429.599C412.946 422.604 415.194 419.666 415.194 419.666C415.194 419.666 411.417 421.926 410.753 429.807C410.407 433.856 411.208 439.206 413.592 446.482C413.638 446.581 413.684 446.68 413.738 446.771L413.966 448.669C414.421 452.401 415.877 456.044 415.749 459.794C415.486 468.136 405.828 473.794 397.227 470.829L395.644 470.287L394.188 471.128C385.732 476.053 378.988 476.56 373.919 475.204C369.65 474.074 366.638 471.679 364.89 469.917C370.142 464.521 383.011 451.235 387.343 446.192L389.537 443.653L388.973 443.101C383.703 437.868 377.141 437.841 370.469 440.779C360.185 445.325 349.663 457.553 345.932 462.171C344.858 461.828 341.536 459.297 340.08 457.842C337.859 455.628 335.875 451.886 335.019 445.74L334.81 444.249L333.599 443.345C322.414 434.976 320.293 419.964 331.024 411.044L332.379 409.914L332.325 408.152C332.17 403.633 334.236 399.087 337.031 394.776C341.727 387.5 348.589 380.93 352.831 376.303C370.788 356.681 392.012 331.963 405.683 302.897C408.195 297.555 409.232 293.895 410.015 291.021C410.643 288.735 410.999 287.036 412.182 285.264C414.894 281.224 421.256 276.886 439.905 265.299L440.933 264.658L441.37 263.528C442.981 259.353 447.768 251.842 458.244 248.091L460.611 247.242L460.656 244.747C460.82 234.914 465.57 202.884 498.945 180C508.921 194.723 507.783 218.348 506.318 227.404L505.189 234.372L511.543 231.209C527.679 223.174 545.628 223.301 563.157 222.397C579.485 221.556 595.458 219.857 609.592 211.217C609.219 213.693 608.51 216.612 607.19 219.559L604.668 225.18L610.848 224.629C629.452 222.957 647.172 227.946 664.729 233.477C680.939 238.584 697.022 244.16 713.441 245.976C709.873 250.342 703.401 256.686 693.526 260.753L688.93 262.651L692.143 266.429C695.492 270.37 723.124 300.62 755.899 307.841C751.412 313.634 743.821 319.454 733.164 320.9L730.051 321.325L730.023 324.443C729.969 328.953 730.696 345.492 737.213 361.083C741.108 370.428 747.07 379.393 755.999 385.449C750.247 389.679 740.854 391.432 731.316 389.932L727.748 389.371L727.156 392.896C723.525 414.216 727.129 441.538 740.982 460.517C734.283 463.437 724.171 463.879 716.553 459.18L714.414 457.86L712.421 459.379C705.768 464.431 683.606 490.686 695.201 525.03C676.307 528.943 661.99 521.27 649.812 513.814L646.726 511.925L644.815 514.98C636.797 527.777 630.507 541.741 626.248 556.563L624.929 561.163H733.827L456.597 891V631.658H348.216L493.439 419.576ZM426.698 294.474C426.434 295.513 426.298 296.597 426.298 297.709C426.298 302.725 429.092 307.19 433.451 310.082C440.687 308.41 446.175 303.186 447.094 296.796C448.114 296.634 449.097 296.399 450.016 296.083C452.137 295.359 453.866 294.456 455.35 293.479C458.271 291.545 459.755 289.828 459.755 289.828C459.755 289.828 456.287 290.904 451.254 291.021C449.752 291.057 448.224 290.84 446.503 290.714C444.456 290.551 442.235 290.362 439.978 289.521C437.957 288.906 436.1 288.454 434.371 288.454C432.178 288.445 430.284 288.825 428.646 289.494C427.063 290.154 425.797 290.895 424.723 291.799C421.801 294.293 420.81 296.814 420.81 296.814C420.81 296.814 422.966 295.197 426.698 294.474ZM512.634 256.343C527.433 255.53 541.486 256.216 554.765 258.078C569.245 260.112 582.706 263.682 595.112 268.544C603.003 271.635 610.466 275.223 617.447 279.335C634.439 289.349 648.547 302.49 659.077 318.352C669.325 333.788 676.161 351.747 679.128 371.711C680.302 379.637 680.875 387.862 680.857 396.394C680.839 402.847 680.511 409.472 679.792 416.259C678.773 425.821 677.043 435.672 674.513 445.822C671.91 456.215 668.534 466.88 664.22 477.816C670.809 464.376 675.96 451.262 679.637 438.465C683.797 423.968 686.154 409.932 686.746 396.52C687.146 387.663 686.719 379.077 685.645 370.817C682.887 349.749 675.715 330.779 664.957 314.511C653.88 297.754 638.963 283.8 620.878 273.506C613.506 269.312 605.615 265.715 597.232 262.85C584.254 258.413 570.137 255.629 555.138 254.608C541.632 253.695 527.442 254.291 512.634 256.343ZM338.041 412.228C341.19 412.725 344.057 415.708 344.475 418.329C342.983 417.1 341.863 416.367 339.879 416.666C335.993 417.244 333.353 421.058 333.972 425.188C334.063 425.758 334.209 426.309 334.4 426.824C335.401 429.481 337.74 431.352 340.398 431.65C340.971 431.705 341.554 431.696 342.136 431.614C342.346 431.578 342.555 431.542 342.755 431.488C342.983 431.479 343.22 431.452 343.456 431.415C348.417 430.674 351.766 425.613 350.937 420.109C350.1 414.614 345.404 410.746 340.434 411.487C339.588 411.613 338.787 411.867 338.041 412.228Z" fill="url(#paint0_linear_126_552)"/>
<defs>
<linearGradient id="paint0_linear_126_552" x1="437.038" y1="212.211" x2="586.093" y2="988.05" gradientUnits="userSpaceOnUse">
<stop stop-color="#19CE59"/>
<stop offset="1" stop-color="#116A32"/>
</linearGradient>
</defs>
</svg>
